<svg fill="none" height="24" viewBox="0 0 24 24" width="24" xmlns="http://www.w3.org/2000/svg"><path d="m12 2c-5.52 0-10 4.48-10 10s4.48 10 10 10 10-4.48 10-10-4.48-10-10-10zm3.42 14.58c-.15.21-.38.31-.61.31-.15 0-.3-.05-.44-.14-1.54-1.1-3.51-1.34-5.26999-.65-.38.15-.82001-.04-.97001-.42-.15-.39.04-.82.42-.97 2.24-.89 4.74-.58 6.69.82.35.25.42.72.18 1.05zm1.1-2.79c-.15.21-.38.31-.61.31-.15 0-.3-.05-.44-.14-2.12-1.52-4.83-1.85-7.25999-.89-.38.15-.82-.04-.97-.42-.15-.39.03999-.82.41999-.97 2.9-1.15 6.15-.75 8.68 1.07.34.24.42.71.18 1.04zm1.57-2.68c-.15.21-.38.31-.61.31-.15 0-.3-.05-.44-.14-2.98-2.14-6.8-2.61-10.2-1.25-.39.15-.82-.04001-.97-.42001s.03999-.81998.41999-.96998c3.88001-1.54 8.23001-1.01 11.63001 1.42999.34.23.42.7.17 1.04z" fill="#000"/></svg>